<?xml version="1.0"?>
<svg xmlns="http://www.w3.org/2000/svg" xmlns:xlink="http://www.w3.org/1999/xlink" id="Gradient" viewBox="0 0 512 512" width="512" height="512"><defs><linearGradient id="linear-gradient" x1="256" y1="408" x2="256" y2="104" gradientUnits="userSpaceOnUse"><stop offset="0" stop-color="#12c2e9"/><stop offset="0.5" stop-color="#c471ed"/><stop offset="1" stop-color="#f64f59"/></linearGradient></defs><path d="M392,256H360a8,8,0,0,1,0-16h32a8,8,0,0,1,0,16Zm52.436-119.155a8,8,0,0,0-3.6,10.721C440.911,147.711,448,162.16,448,176s-7.089,28.289-7.155,28.422a8,8,0,1,0,14.31,7.156C455.517,210.855,464,193.686,464,176s-8.483-34.855-8.845-35.578A8,8,0,0,0,444.436,136.845ZM496,144V336a40.045,40.045,0,0,1-40,40H207.2A40.068,40.068,0,0,1,168,408H56a40.045,40.045,0,0,1-40-40V248a8,8,0,0,1,8-8H40V208a72.211,72.211,0,0,1,20.527-50.85,69.815,69.815,0,0,1,36.016-19.685A40.058,40.058,0,0,1,136,104H456A40.045,40.045,0,0,1,496,144ZM112,240h56V208H152a24.028,24.028,0,0,1-24-24V168a23.853,23.853,0,0,1,3.513-12.487A55.737,55.737,0,0,0,112,152Zm33.6-76.773A7.946,7.946,0,0,0,144,168v16a8.009,8.009,0,0,0,8,8h13.659A56.184,56.184,0,0,0,145.6,163.227ZM182.186,192H184a8.009,8.009,0,0,0,8-8V168a8.009,8.009,0,0,0-8-8H165.608A71.87,71.87,0,0,1,182.186,192ZM56,240H96V154.067A53.953,53.953,0,0,0,71.963,168.34,56.3,56.3,0,0,0,56,208Zm136,16H32V368a24.028,24.028,0,0,0,24,24H168a24.028,24.028,0,0,0,24-24ZM480,144a24.027,24.027,0,0,0-24-24H136a24.039,24.039,0,0,0-22.636,16.035,71.533,71.533,0,0,1,32.912,8.66A23.964,23.964,0,0,1,152,144h32a24.028,24.028,0,0,1,24,24v16a24.028,24.028,0,0,1-24,24v32h16a8,8,0,0,1,8,8v48h32a8,8,0,0,1,0,16H208v16h72a8,8,0,0,1,0,16H208v16H456a24.027,24.027,0,0,0,24-24ZM464,312a31.992,31.992,0,0,1-48.01,27.7,32,32,0,1,1-.011-55.408A32.009,32.009,0,0,1,464,312Zm-48,0a16,16,0,1,0-16,16A16.019,16.019,0,0,0,416,312Zm32,0a15.957,15.957,0,0,0-20-15.478,31.912,31.912,0,0,1,0,30.958A15.965,15.965,0,0,0,448,312ZM378.343,197.657a8,8,0,0,0,11.314,0C390.715,196.6,400,187,400,176s-9.285-20.6-10.343-21.657a8,8,0,0,0-11.336,11.292C380.611,167.962,384,172.866,384,176s-3.389,8.038-5.657,10.343A8,8,0,0,0,378.343,197.657ZM328,240H296a8,8,0,0,0,0,16h32a8,8,0,0,0,0-16Zm88-64c0,12.149-5.512,18.184-5.747,18.435l.09-.092h0a8,8,0,0,0,11.314,11.314h0C422.715,204.6,432,194.771,432,176s-9.285-28.6-10.343-29.657a8,8,0,0,0-11.314,11.314C410.4,157.714,416,163.859,416,176ZM144,304a32.057,32.057,0,0,1-24,30.987V368a8,8,0,0,1-16,0V334.987A32,32,0,1,1,144,304Zm-16,0a16,16,0,1,0-16,16A16.019,16.019,0,0,0,128,304Zm136-64H232a8,8,0,0,0,0,16h32a8,8,0,0,0,0-16Z" style="fill:url(#linear-gradient)"/></svg>
