<svg id="Capa_1" enable-background="new 0 0 512 512" height="512" viewBox="0 0 512 512" width="512" xmlns="http://www.w3.org/2000/svg" xmlns:xlink="http://www.w3.org/1999/xlink"><linearGradient id="SVGID_1_" gradientUnits="userSpaceOnUse" x1="256" x2="256" y1="512" y2="0"><stop offset="0" stop-color="#fd3a84"/><stop offset="1" stop-color="#ffa68d"/></linearGradient><g><g><g><path d="m196 242c-8.284 0-15 6.716-15 15s6.716 15 15 15 15-6.716 15-15-6.716-15-15-15zm74.246-59.246c-5.857-5.858-15.355-5.858-21.213 0l-11.704 11.704c-7.869-5.218-16.768-9-26.33-10.948v-16.51c0-8.284-6.716-15-15-15s-15 6.716-15 15v16.509c-9.562 1.949-18.46 5.731-26.33 10.948l-11.704-11.704c-5.857-5.859-15.355-5.857-21.213 0-5.858 5.858-5.858 15.355 0 21.213l11.704 11.704c-5.218 7.869-9 16.768-10.948 26.33h-16.508c-8.284 0-15 6.716-15 15s6.716 15 15 15h16.509c1.948 9.562 5.731 18.46 10.948 26.33l-11.704 11.704c-5.858 5.858-5.858 15.355 0 21.213 5.857 5.858 15.355 5.858 21.213 0l11.704-11.704c7.869 5.218 16.768 9 26.33 10.948v16.509c0 8.284 6.716 15 15 15s15-6.716 15-15v-16.509c9.562-1.949 18.46-5.731 26.33-10.948l11.704 11.704c5.856 5.858 15.354 5.858 21.213 0 5.858-5.858 5.858-15.355 0-21.213l-11.704-11.704c5.218-7.869 9-16.768 10.948-26.33h16.509c8.284 0 15-6.716 15-15s-6.716-15-15-15h-16.509c-1.948-9.562-5.731-18.46-10.948-26.33l11.704-11.704c5.857-5.857 5.857-15.355-.001-21.212zm-74.246 119.246c-24.813 0-45-20.187-45-45s20.187-45 45-45 45 20.187 45 45-20.187 45-45 45zm150-242h-77.578c-4.754-13.404-15.683-23.91-29.355-28.066-5.613-18.462-22.796-31.934-43.067-31.934s-37.454 13.472-43.066 31.934c-13.673 4.156-24.602 14.662-29.356 28.066h-77.578c-8.284 0-15 6.716-15 15v422c0 8.284 6.716 15 15 15h300c8.284 0 15-6.716 15-15v-422c0-8.284-6.716-15-15-15zm-195 15c0-8.271 6.729-15 15-15 8.284 0 15-6.716 15-15 0-8.271 6.729-15 15-15s15 6.729 15 15c0 8.284 6.716 15 15 15 8.271 0 15 6.729 15 15v15h-90zm180 407h-270v-30h270zm0-60h-270v-332h60v15c0 8.284 6.716 15 15 15h120c8.284 0 15-6.716 15-15v-15h60zm120-327.42v-17.58c0-8.284-6.716-15-15-15s-15 6.716-15 15v17.58c-17.459 6.192-30 22.865-30 42.42v175.132c0 64.565 10.353 128.36 30.77 189.612 2.042 6.125 7.774 10.256 14.23 10.256s12.188-4.131 14.23-10.257c20.417-61.251 30.77-125.046 30.77-189.611v-175.132c0-19.555-12.541-36.228-30-42.42zm0 217.552c0 43.879-5.034 87.385-15 129.897-9.966-42.513-15-86.019-15-129.897v-40.132h30zm0-70.132h-30v-105c0-8.271 6.729-15 15-15s15 6.729 15 15z" fill="url(#SVGID_1_)"/></g></g></g></svg>